# xmcd
#
# Track frame offsets: 
#        150
#        17175
#        43338
#        71836
#        100483
#        136041
#        170966
#        194815
#        205332
#        231628
#        254204
#        288550
#
# Disc length: 3922 seconds
#
# Revision: 1
# Processed by: cddbd v1.5.2PL0 Copyright (c) Steve Scherf et al.
# Submitted via: ExactAudioCopy v0.99pb5
#
DISCID=d20f500c
DTITLE=Various Artist - Kawablues
DYEAR=2008
DGENRE=Blues
TTITLE0=Sl¹ska Grupa Bluesowa - Pierwszy Listopada
TTITLE1=Cree - Po co mi wiêcej
TTITLE2=Jan Kyks Skrzek - W Siemianowicach
TTITLE3=Krzak - Ptak moich marzeñ
TTITLE4=Ryszard Riedel , Leszek Winder  Co. - Blues dla Dzidka
TTITLE5=Sl¹ska Grupa Bluesowa - Blues bardzo sl¹ski
TTITLE6=DDD - Mys
TTITLE7=Krzak - Ska³ki
TTITLE8=Krzak - Drzewo oliwne
TTITLE9=Krzak - Kierunkowy 5074
TTITLE10=I ching - I Ching
TTITLE11=Jerzy Kawalec - £atka
EXTD=
EXTT0=
EXTT1=
EXTT2=
EXTT3=
EXTT4=
EXTT5=
EXTT6=
EXTT7=
EXTT8=
EXTT9=
EXTT10=
EXTT11=
PLAYORDER=
